<mxfile host="app.diagrams.net" modified="2020-10-08T15:54:36.796Z" agent="5.0 (Windows)" etag="ZFbF9NfTt4PIXm12fOUp" version="13.7.4" type="github">
  <diagram name="Page-1" id="e7e014a7-5840-1c2e-5031-d8a46d1fe8dd">
    <mxGraphModel dx="1955" dy="1080" grid="1" gridSize="10" guides="1" tooltips="1" connect="1" arrows="1" fold="1" page="1" pageScale="1" pageWidth="1600" pageHeight="1200" background="#ffffff" math="0" shadow="0">
      <root>
        <mxCell id="0" />
        <mxCell id="1" parent="0" />
        <mxCell id="8-Pry5BBoGD9wtMa4uPM-41" value="&lt;font style=&quot;font-size: 24px&quot;&gt;Body&lt;/font&gt;" style="rounded=1;whiteSpace=wrap;html=1;" vertex="1" parent="1">
          <mxGeometry x="390" y="40" width="120" height="60" as="geometry" />
        </mxCell>
        <mxCell id="8-Pry5BBoGD9wtMa4uPM-42" value="" style="endArrow=none;html=1;entryX=0.25;entryY=1;entryDx=0;entryDy=0;" edge="1" parent="1" target="8-Pry5BBoGD9wtMa4uPM-41">
          <mxGeometry width="50" height="50" relative="1" as="geometry">
            <mxPoint x="260" y="260" as="sourcePoint" />
            <mxPoint x="435" y="90" as="targetPoint" />
          </mxGeometry>
        </mxCell>
        <mxCell id="8-Pry5BBoGD9wtMa4uPM-43" value="&lt;font style=&quot;font-size: 24px&quot;&gt;Header&lt;/font&gt;" style="rounded=1;whiteSpace=wrap;html=1;" vertex="1" parent="1">
          <mxGeometry x="210" y="230" width="120" height="60" as="geometry" />
        </mxCell>
        <mxCell id="8-Pry5BBoGD9wtMa4uPM-44" value="&lt;font style=&quot;font-size: 24px&quot;&gt;main&lt;/font&gt;" style="rounded=1;whiteSpace=wrap;html=1;" vertex="1" parent="1">
          <mxGeometry x="550" y="220" width="120" height="60" as="geometry" />
        </mxCell>
        <mxCell id="8-Pry5BBoGD9wtMa4uPM-45" value="" style="endArrow=none;html=1;entryX=0.75;entryY=1;entryDx=0;entryDy=0;" edge="1" parent="1" source="8-Pry5BBoGD9wtMa4uPM-44" target="8-Pry5BBoGD9wtMa4uPM-41">
          <mxGeometry width="50" height="50" relative="1" as="geometry">
            <mxPoint x="450" y="190" as="sourcePoint" />
            <mxPoint x="490" y="110" as="targetPoint" />
          </mxGeometry>
        </mxCell>
        <mxCell id="8-Pry5BBoGD9wtMa4uPM-47" value="&lt;font style=&quot;font-size: 24px&quot;&gt;div&lt;/font&gt;" style="rounded=1;whiteSpace=wrap;html=1;" vertex="1" parent="1">
          <mxGeometry x="410" y="360" width="120" height="60" as="geometry" />
        </mxCell>
        <mxCell id="8-Pry5BBoGD9wtMa4uPM-48" value="div" style="rounded=1;whiteSpace=wrap;html=1;fontSize=24;" vertex="1" parent="1">
          <mxGeometry x="190" y="490" width="120" height="60" as="geometry" />
        </mxCell>
        <mxCell id="8-Pry5BBoGD9wtMa4uPM-49" value="LI" style="rounded=1;whiteSpace=wrap;html=1;fontSize=24;" vertex="1" parent="1">
          <mxGeometry x="630" y="490" width="120" height="60" as="geometry" />
        </mxCell>
        <mxCell id="8-Pry5BBoGD9wtMa4uPM-50" value="div" style="rounded=1;whiteSpace=wrap;html=1;fontSize=24;" vertex="1" parent="1">
          <mxGeometry x="410" y="490" width="120" height="60" as="geometry" />
        </mxCell>
        <mxCell id="8-Pry5BBoGD9wtMa4uPM-52" value="" style="endArrow=none;html=1;" edge="1" parent="1" target="8-Pry5BBoGD9wtMa4uPM-44">
          <mxGeometry width="50" height="50" relative="1" as="geometry">
            <mxPoint x="500" y="360" as="sourcePoint" />
            <mxPoint x="550" y="310" as="targetPoint" />
          </mxGeometry>
        </mxCell>
        <mxCell id="8-Pry5BBoGD9wtMa4uPM-54" value="" style="endArrow=none;html=1;" edge="1" parent="1">
          <mxGeometry width="50" height="50" relative="1" as="geometry">
            <mxPoint x="500" y="360" as="sourcePoint" />
            <mxPoint x="550" y="310" as="targetPoint" />
          </mxGeometry>
        </mxCell>
        <mxCell id="8-Pry5BBoGD9wtMa4uPM-55" value="" style="endArrow=none;html=1;entryX=0;entryY=0.75;entryDx=0;entryDy=0;exitX=0.75;exitY=0;exitDx=0;exitDy=0;" edge="1" parent="1" source="8-Pry5BBoGD9wtMa4uPM-48" target="8-Pry5BBoGD9wtMa4uPM-47">
          <mxGeometry width="50" height="50" relative="1" as="geometry">
            <mxPoint x="200" y="460" as="sourcePoint" />
            <mxPoint x="250" y="410" as="targetPoint" />
          </mxGeometry>
        </mxCell>
        <mxCell id="8-Pry5BBoGD9wtMa4uPM-56" value="" style="endArrow=none;html=1;" edge="1" parent="1">
          <mxGeometry width="50" height="50" relative="1" as="geometry">
            <mxPoint x="500" y="360" as="sourcePoint" />
            <mxPoint x="550" y="310" as="targetPoint" />
          </mxGeometry>
        </mxCell>
        <mxCell id="8-Pry5BBoGD9wtMa4uPM-57" value="" style="endArrow=none;html=1;entryX=0.5;entryY=1;entryDx=0;entryDy=0;" edge="1" parent="1" target="8-Pry5BBoGD9wtMa4uPM-47">
          <mxGeometry width="50" height="50" relative="1" as="geometry">
            <mxPoint x="470" y="490" as="sourcePoint" />
            <mxPoint x="530" y="470" as="targetPoint" />
          </mxGeometry>
        </mxCell>
        <mxCell id="8-Pry5BBoGD9wtMa4uPM-58" value="" style="endArrow=none;html=1;" edge="1" parent="1">
          <mxGeometry width="50" height="50" relative="1" as="geometry">
            <mxPoint x="500" y="360" as="sourcePoint" />
            <mxPoint x="550" y="310" as="targetPoint" />
          </mxGeometry>
        </mxCell>
        <mxCell id="8-Pry5BBoGD9wtMa4uPM-59" value="" style="endArrow=none;html=1;exitX=1;exitY=1;exitDx=0;exitDy=0;" edge="1" parent="1" source="8-Pry5BBoGD9wtMa4uPM-47" target="8-Pry5BBoGD9wtMa4uPM-49">
          <mxGeometry width="50" height="50" relative="1" as="geometry">
            <mxPoint x="610" y="480" as="sourcePoint" />
            <mxPoint x="660" y="430" as="targetPoint" />
          </mxGeometry>
        </mxCell>
        <mxCell id="8-Pry5BBoGD9wtMa4uPM-138" value="&lt;font style=&quot;font-size: 24px&quot;&gt;Body&lt;/font&gt;" style="rounded=1;whiteSpace=wrap;html=1;" vertex="1" parent="1">
          <mxGeometry x="1070" y="50" width="120" height="60" as="geometry" />
        </mxCell>
        <mxCell id="8-Pry5BBoGD9wtMa4uPM-139" value="" style="endArrow=none;html=1;entryX=0.25;entryY=1;entryDx=0;entryDy=0;" edge="1" target="8-Pry5BBoGD9wtMa4uPM-138" parent="1">
          <mxGeometry width="50" height="50" relative="1" as="geometry">
            <mxPoint x="940" y="270" as="sourcePoint" />
            <mxPoint x="1115" y="100" as="targetPoint" />
          </mxGeometry>
        </mxCell>
        <mxCell id="8-Pry5BBoGD9wtMa4uPM-140" value="&lt;font style=&quot;font-size: 24px&quot;&gt;Header&lt;/font&gt;" style="rounded=1;whiteSpace=wrap;html=1;" vertex="1" parent="1">
          <mxGeometry x="890" y="240" width="120" height="60" as="geometry" />
        </mxCell>
        <mxCell id="8-Pry5BBoGD9wtMa4uPM-141" value="main" style="rounded=1;whiteSpace=wrap;html=1;fontSize=24;" vertex="1" parent="1">
          <mxGeometry x="1230" y="230" width="120" height="60" as="geometry" />
        </mxCell>
        <mxCell id="8-Pry5BBoGD9wtMa4uPM-142" value="" style="endArrow=none;html=1;entryX=0.75;entryY=1;entryDx=0;entryDy=0;" edge="1" source="8-Pry5BBoGD9wtMa4uPM-141" target="8-Pry5BBoGD9wtMa4uPM-138" parent="1">
          <mxGeometry width="50" height="50" relative="1" as="geometry">
            <mxPoint x="1130" y="200" as="sourcePoint" />
            <mxPoint x="1170" y="120" as="targetPoint" />
          </mxGeometry>
        </mxCell>
        <mxCell id="8-Pry5BBoGD9wtMa4uPM-143" value="div" style="rounded=1;whiteSpace=wrap;html=1;fontSize=24;" vertex="1" parent="1">
          <mxGeometry x="1090" y="370" width="120" height="60" as="geometry" />
        </mxCell>
        <mxCell id="8-Pry5BBoGD9wtMa4uPM-148" value="" style="endArrow=none;html=1;" edge="1" target="8-Pry5BBoGD9wtMa4uPM-141" parent="1">
          <mxGeometry width="50" height="50" relative="1" as="geometry">
            <mxPoint x="1180" y="370" as="sourcePoint" />
            <mxPoint x="1230" y="320" as="targetPoint" />
          </mxGeometry>
        </mxCell>
        <mxCell id="8-Pry5BBoGD9wtMa4uPM-149" value="" style="endArrow=none;html=1;" edge="1" parent="1">
          <mxGeometry width="50" height="50" relative="1" as="geometry">
            <mxPoint x="1180" y="370" as="sourcePoint" />
            <mxPoint x="1230" y="320" as="targetPoint" />
          </mxGeometry>
        </mxCell>
        <mxCell id="8-Pry5BBoGD9wtMa4uPM-151" value="" style="endArrow=none;html=1;" edge="1" parent="1">
          <mxGeometry width="50" height="50" relative="1" as="geometry">
            <mxPoint x="1180" y="370" as="sourcePoint" />
            <mxPoint x="1230" y="320" as="targetPoint" />
          </mxGeometry>
        </mxCell>
        <mxCell id="8-Pry5BBoGD9wtMa4uPM-153" value="" style="endArrow=none;html=1;" edge="1" parent="1">
          <mxGeometry width="50" height="50" relative="1" as="geometry">
            <mxPoint x="1180" y="370" as="sourcePoint" />
            <mxPoint x="1230" y="320" as="targetPoint" />
          </mxGeometry>
        </mxCell>
        <mxCell id="8-Pry5BBoGD9wtMa4uPM-155" value="p" style="rounded=1;whiteSpace=wrap;html=1;fontSize=24;" vertex="1" parent="1">
          <mxGeometry x="970" y="540" width="120" height="60" as="geometry" />
        </mxCell>
        <mxCell id="8-Pry5BBoGD9wtMa4uPM-156" value="" style="endArrow=none;html=1;entryX=0;entryY=0.75;entryDx=0;entryDy=0;exitX=0.5;exitY=0.083;exitDx=0;exitDy=0;exitPerimeter=0;" edge="1" parent="1" source="8-Pry5BBoGD9wtMa4uPM-155">
          <mxGeometry width="50" height="50" relative="1" as="geometry">
            <mxPoint x="1000" y="515" as="sourcePoint" />
            <mxPoint x="1130" y="430" as="targetPoint" />
          </mxGeometry>
        </mxCell>
        <mxCell id="8-Pry5BBoGD9wtMa4uPM-158" value="p" style="rounded=1;whiteSpace=wrap;html=1;fontSize=24;" vertex="1" parent="1">
          <mxGeometry x="630" y="490" width="120" height="60" as="geometry" />
        </mxCell>
        <mxCell id="8-Pry5BBoGD9wtMa4uPM-159" value="div" style="rounded=1;whiteSpace=wrap;html=1;fontSize=24;" vertex="1" parent="1">
          <mxGeometry x="1290" y="500" width="120" height="60" as="geometry" />
        </mxCell>
        <mxCell id="8-Pry5BBoGD9wtMa4uPM-160" value="" style="endArrow=none;html=1;exitX=1;exitY=1;exitDx=0;exitDy=0;" edge="1" parent="1">
          <mxGeometry width="50" height="50" relative="1" as="geometry">
            <mxPoint x="1190" y="430" as="sourcePoint" />
            <mxPoint x="1301.9999999999995" y="500" as="targetPoint" />
          </mxGeometry>
        </mxCell>
      </root>
    </mxGraphModel>
  </diagram>
</mxfile>
